<svg xmlns="http://www.w3.org/2000/svg" width="1156" height="271" viewBox="0 0 1156 271">
    <defs>
        <style>
            .prefix__cls-1,.prefix__cls-5{fill:#4d585e}.prefix__cls-1{font-size:16px;font-family:Poppins-Medium,Poppins;font-weight:500}.prefix__cls-2{fill:#a7a7a7}.prefix__cls-2,.prefix__cls-3,.prefix__cls-5{font-size:14px;font-family:Poppins-Regular,Poppins}.prefix__cls-3{fill:#404041}.prefix__cls-4{fill:none;stroke:#a7a7a7}
        </style>
    </defs>
    <g id="prefix__Group_1635" data-name="Group 1635" transform="translate(-385 -470)">
        <text id="prefix__Sun" class="prefix__cls-1" transform="translate(451 499)">
            <tspan x="0" y="0">Sun</tspan>
        </text>
        <text id="prefix___24" class="prefix__cls-2" data-name="24" transform="translate(515 542)">
            <tspan x="0" y="0">24</tspan>
        </text>
        <text id="prefix___10" class="prefix__cls-3" data-name="10" transform="translate(519 636)">
            <tspan x="0" y="0">10</tspan>
        </text>
        <text id="prefix___17" class="prefix__cls-3" data-name="17" transform="translate(530 680)">
            <tspan x="-11.102" y="0">17</tspan>
        </text>
        <text id="prefix___24-2" class="prefix__cls-3" data-name="24" transform="translate(532 724)">
            <tspan x="-16.618" y="0">24</tspan>
        </text>
        <text id="prefix___25" class="prefix__cls-2" data-name="25" transform="translate(680 542)">
            <tspan x="0" y="0">25</tspan>
        </text>
        <text id="prefix___11" class="prefix__cls-3" data-name="11" transform="translate(689 636)">
            <tspan x="0" y="0">11</tspan>
        </text>
        <text id="prefix___18" class="prefix__cls-3" data-name="18" transform="translate(697 680)">
            <tspan x="-12.768" y="0">18</tspan>
        </text>
        <text id="prefix___25-2" class="prefix__cls-3" data-name="25" transform="translate(697 724)">
            <tspan x="-16.562" y="0">25</tspan>
        </text>
        <text id="prefix___26" class="prefix__cls-2" data-name="26" transform="translate(845 542)">
            <tspan x="0" y="0">26</tspan>
        </text>
        <text id="prefix___12" class="prefix__cls-3" data-name="12" transform="translate(850 636)">
            <tspan x="0" y="0">12</tspan>
        </text>
        <text id="prefix___19" class="prefix__cls-3" data-name="19" transform="translate(862 680)">
            <tspan x="-12.53" y="0">19</tspan>
        </text>
        <text id="prefix___26-2" class="prefix__cls-3" data-name="26" transform="translate(862 724)">
            <tspan x="-16.632" y="0">26</tspan>
        </text>
        <text id="prefix___27" class="prefix__cls-2" data-name="27" transform="translate(1012 542)">
            <tspan x="0" y="0">27</tspan>
        </text>
        <text id="prefix___13" class="prefix__cls-3" data-name="13" transform="translate(1015 636)">
            <tspan x="0" y="0">13</tspan>
        </text>
        <text id="prefix___20" class="prefix__cls-3" data-name="20" transform="translate(1027 680)">
            <tspan x="-16.534" y="0">20</tspan>
        </text>
        <text id="prefix___27-2" class="prefix__cls-3" data-name="27" transform="translate(1027 724)">
            <tspan x="-15.022" y="0">27</tspan>
        </text>
        <text id="prefix___28" class="prefix__cls-2" data-name="28" transform="translate(1176 542)">
            <tspan x="0" y="0">28</tspan>
        </text>
        <text id="prefix___14" class="prefix__cls-3" data-name="14" transform="translate(1180 636)">
            <tspan x="0" y="0">14</tspan>
        </text>
        <text id="prefix___21" class="prefix__cls-3" data-name="21" transform="translate(1193 680)">
            <tspan x="-11.956" y="0">21</tspan>
        </text>
        <text id="prefix___28-2" class="prefix__cls-3" data-name="28" transform="translate(1193 724)">
            <tspan x="-16.688" y="0">28</tspan>
        </text>
        <text id="prefix___2" class="prefix__cls-3" data-name="2" transform="translate(1515 542)">
            <tspan x="0" y="0">2</tspan>
        </text>
        <text id="prefix___16" class="prefix__cls-3" data-name="16" transform="translate(1510 636)">
            <tspan x="0" y="0">16</tspan>
        </text>
        <text id="prefix___23" class="prefix__cls-3" data-name="23" transform="translate(1523 680)">
            <tspan x="-16.184" y="0">23</tspan>
        </text>
        <text id="prefix___30" class="prefix__cls-3" data-name="30" transform="translate(1523 724)">
            <tspan x="-16.842" y="0">30</tspan>
        </text>
        <text id="prefix___1" class="prefix__cls-3" data-name="1" transform="translate(1354 542)">
            <tspan x="0" y="0">1</tspan>
        </text>
        <text id="prefix___15" class="prefix__cls-3" data-name="15" transform="translate(1345 636)">
            <tspan x="0" y="0">15</tspan>
        </text>
        <text id="prefix___22" class="prefix__cls-3" data-name="22" transform="translate(1358 680)">
            <tspan x="-15.876" y="0">22</tspan>
        </text>
        <text id="prefix___29" class="prefix__cls-3" data-name="29" transform="translate(1358 724)">
            <tspan x="-16.45" y="0">29</tspan>
        </text>
        <text id="prefix__Mon" class="prefix__cls-1" transform="translate(609 499)">
            <tspan x="0" y="0">Mon</tspan>
        </text>
        <text id="prefix__Wed" class="prefix__cls-1" transform="translate(939 499)">
            <tspan x="0" y="0">Wed</tspan>
        </text>
        <text id="prefix__Fri" class="prefix__cls-1" transform="translate(1285 499)">
            <tspan x="0" y="0">Fri</tspan>
        </text>
        <text id="prefix__Tue" class="prefix__cls-1" transform="translate(779 499)">
            <tspan x="0" y="0">Tue</tspan>
        </text>
        <text id="prefix__Thu" class="prefix__cls-1" transform="translate(1107 499)">
            <tspan x="0" y="0">Thu</tspan>
        </text>
        <text id="prefix__Sat" class="prefix__cls-1" transform="translate(1445 499)">
            <tspan x="0" y="0">Sat</tspan>
        </text>
        <path id="prefix__Line_998" d="M0 0L0 270" class="prefix__cls-4" data-name="Line 998" transform="translate(548.5 470.5)"/>
        <path id="prefix__Line_999" d="M0 0L0 270" class="prefix__cls-4" data-name="Line 999" transform="translate(713.5 470.5)"/>
        <path id="prefix__Line_1000" d="M0 0L0 270" class="prefix__cls-4" data-name="Line 1000" transform="translate(878.5 470.5)"/>
        <path id="prefix__Line_1002" d="M0 0L0 270" class="prefix__cls-4" data-name="Line 1002" transform="translate(1209.5 470.5)"/>
        <path id="prefix__Line_1001" d="M0 0L0 270" class="prefix__cls-4" data-name="Line 1001" transform="translate(1043.5 470.5)"/>
        <path id="prefix__Line_1003" d="M0 0L0 270" class="prefix__cls-4" data-name="Line 1003" transform="translate(1374.5 470.5)"/>
        <path id="prefix__Line_1007" d="M0 0L1155 0" class="prefix__cls-4" data-name="Line 1007" transform="translate(385.5 515.5)"/>
        <path id="prefix__Line_1094" d="M0 0L1155 0" class="prefix__cls-4" data-name="Line 1094" transform="translate(385.5 565.5)"/>
        <path id="prefix__Line_1095" d="M0 0L1155 0" class="prefix__cls-4" data-name="Line 1095" transform="translate(385.5 609.5)"/>
        <path id="prefix__Line_1096" d="M0 0L1155 0" class="prefix__cls-4" data-name="Line 1096" transform="translate(385.5 653.5)"/>
        <path id="prefix__Line_1097" d="M0 0L1155 0" class="prefix__cls-4" data-name="Line 1097" transform="translate(385.5 697.5)"/>
        <text id="prefix___9" class="prefix__cls-5" data-name="9" transform="translate(1514 592)">
            <tspan x="0" y="0">9</tspan>
        </text>
        <text id="prefix___8" class="prefix__cls-5" data-name="8" transform="translate(1349 592)">
            <tspan x="0" y="0">8</tspan>
        </text>
        <text id="prefix___5" class="prefix__cls-5" data-name="5" transform="translate(853 592)">
            <tspan x="0" y="0">5</tspan>
        </text>
        <text id="prefix___7" class="prefix__cls-5" data-name="7" transform="translate(1186 592)">
            <tspan x="0" y="0">7</tspan>
        </text>
        <text id="prefix___4" class="prefix__cls-5" data-name="4" transform="translate(688 592)">
            <tspan x="0" y="0">4</tspan>
        </text>
        <text id="prefix___6" class="prefix__cls-5" data-name="6" transform="translate(1018 592)">
            <tspan x="0" y="0">6</tspan>
        </text>
        <text id="prefix___3" class="prefix__cls-3" data-name="3" transform="translate(524 592)">
            <tspan x="0" y="0">3</tspan>
        </text>
        <g id="prefix__Rectangle_2270" class="prefix__cls-4" data-name="Rectangle 2270" transform="translate(385 470)">
            <rect width="1156" height="271" rx="4" style="stroke:none"/>
            <rect width="1155" height="270" x=".5" y=".5" rx="3.5" style="fill:none"/>
        </g>
    </g>
</svg>
