<svg xmlns="http://www.w3.org/2000/svg" width="37.507" height="35.925" viewBox="0 0 37.507 35.925">
    <defs>
        <style>
            .cls-1{fill:#868585}
        </style>
    </defs>
    <g id="calendar_7_" data-name="calendar (7)" transform="translate(-19 -29)">
        <path id="Path_2491" d="M52.788 32.956h-1.266v-1.82A2.139 2.139 0 0 0 49.386 29h-.4a2.139 2.139 0 0 0-2.136 2.136v1.82H28.575v-1.82A2.139 2.139 0 0 0 26.438 29h-.4a2.139 2.139 0 0 0-2.136 2.136v1.82h-1.183A3.723 3.723 0 0 0 19 36.676v24.53a3.723 3.723 0 0 0 3.719 3.719h30.069a3.723 3.723 0 0 0 3.719-3.719v-24.53a3.723 3.723 0 0 0-3.719-3.72zm-4.827-1.82a1.03 1.03 0 0 1 1.029-1.029h.4a1.03 1.03 0 0 1 1.029 1.029V34.7a1.03 1.03 0 0 1-1.029 1.029h-.4a1.03 1.03 0 0 1-1.029-1.029zm-22.948 0a1.03 1.03 0 0 1 1.029-1.029h.4a1.03 1.03 0 0 1 1.029 1.029V34.7a1.03 1.03 0 0 1-1.029 1.029h-.4a1.03 1.03 0 0 1-1.028-1.029zm-4.906 5.539a2.614 2.614 0 0 1 2.611-2.611h1.187v.636a2.139 2.139 0 0 0 2.136 2.136h.4a2.139 2.139 0 0 0 2.134-2.136v-.633h18.279v.633a2.139 2.139 0 0 0 2.136 2.136h.4a2.139 2.139 0 0 0 2.132-2.136v-.633h1.266a2.614 2.614 0 0 1 2.612 2.609v2.611H20.108zm32.68 27.141H22.719a2.614 2.614 0 0 1-2.611-2.611v-20.81H55.4v20.811a2.614 2.614 0 0 1-2.612 2.611z" class="cls-1" data-name="Path 2491"/>
        <path id="Path_2492" d="M52.554 201.223h4.036a.554.554 0 0 0 .554-.554v-4.115a.554.554 0 0 0-.554-.554h-4.036a.554.554 0 0 0-.554.554v4.115a.554.554 0 0 0 .554.554zm.554-4.115h2.928v3.007h-2.928z" class="cls-1" data-name="Path 2492" transform="translate(-30.389 -153.785)"/>
        <path id="Path_2493" d="M137.554 201.223h4.036a.554.554 0 0 0 .554-.554v-4.115a.554.554 0 0 0-.554-.554h-4.036a.554.554 0 0 0-.554.554v4.115a.554.554 0 0 0 .554.554zm.554-4.115h2.928v3.007h-2.928z" class="cls-1" data-name="Path 2493" transform="translate(-108.663 -153.785)"/>
        <path id="Path_2494" d="M223.554 201.223h4.036a.554.554 0 0 0 .554-.554v-4.115a.554.554 0 0 0-.554-.554h-4.036a.554.554 0 0 0-.554.554v4.115a.554.554 0 0 0 .554.554zm.554-4.115h2.928v3.007h-2.928z" class="cls-1" data-name="Path 2494" transform="translate(-187.858 -153.785)"/>
        <path id="Path_2495" d="M308.554 201.223h4.036a.554.554 0 0 0 .554-.554v-4.115a.554.554 0 0 0-.554-.554h-4.036a.554.554 0 0 0-.554.554v4.115a.554.554 0 0 0 .554.554zm.554-4.115h2.928v3.007h-2.928z" class="cls-1" data-name="Path 2495" transform="translate(-266.132 -153.785)"/>
        <path id="Path_2496" d="M394.554 201.223h4.036a.554.554 0 0 0 .554-.554v-4.115a.554.554 0 0 0-.554-.554h-4.036a.554.554 0 0 0-.554.554v4.115a.554.554 0 0 0 .554.554zm.554-4.115h2.928v3.007h-2.928z" class="cls-1" data-name="Path 2496" transform="translate(-345.326 -153.785)"/>
        <path id="Path_2497" d="M57.59 291h-4.036a.554.554 0 0 0-.554.554v4.115a.554.554 0 0 0 .554.554h4.036a.554.554 0 0 0 .554-.554v-4.115a.554.554 0 0 0-.554-.554zm-.554 4.115h-2.928v-3.007h2.928z" class="cls-1" data-name="Path 2497" transform="translate(-31.31 -241.268)"/>
        <path id="Path_2498" d="M142.59 291h-4.036a.554.554 0 0 0-.554.554v4.115a.554.554 0 0 0 .554.554h4.036a.554.554 0 0 0 .554-.554v-4.115a.554.554 0 0 0-.554-.554zm-.554 4.115h-2.928v-3.007h2.928z" class="cls-1" data-name="Path 2498" transform="translate(-109.584 -241.268)"/>
        <path id="Path_2499" d="M228.59 291h-4.036a.554.554 0 0 0-.554.554v4.115a.554.554 0 0 0 .554.554h4.036a.554.554 0 0 0 .554-.554v-4.115a.554.554 0 0 0-.554-.554zm-.554 4.115h-2.928v-3.007h2.928z" class="cls-1" data-name="Path 2499" transform="translate(-188.778 -241.268)"/>
        <path id="Path_2500" d="M57.59 380h-4.036a.554.554 0 0 0-.554.554v4.115a.554.554 0 0 0 .554.554h4.036a.554.554 0 0 0 .554-.554v-4.115a.554.554 0 0 0-.554-.554zm-.554 4.115h-2.928v-3.007h2.928z" class="cls-1" data-name="Path 2500" transform="translate(-31.31 -323.226)"/>
        <path id="Path_2501" d="M142.59 380h-4.036a.554.554 0 0 0-.554.554v4.115a.554.554 0 0 0 .554.554h4.036a.554.554 0 0 0 .554-.554v-4.115a.554.554 0 0 0-.554-.554zm-.554 4.115h-2.928v-3.007h2.928z" class="cls-1" data-name="Path 2501" transform="translate(-109.584 -323.226)"/>
        <path id="Path_2502" d="M228.59 380h-4.036a.554.554 0 0 0-.554.554v4.115a.554.554 0 0 0 .554.554h4.036a.554.554 0 0 0 .554-.554v-4.115a.554.554 0 0 0-.554-.554zm-.554 4.115h-2.928v-3.007h2.928z" class="cls-1" data-name="Path 2502" transform="translate(-188.778 -323.226)"/>
        <path id="Path_2503" d="M313.59 291h-4.036a.554.554 0 0 0-.554.554v4.115a.554.554 0 0 0 .554.554h4.036a.554.554 0 0 0 .554-.554v-4.115a.554.554 0 0 0-.554-.554zm-.554 4.115h-2.928v-3.007h2.928z" class="cls-1" data-name="Path 2503" transform="translate(-267.052 -241.268)"/>
        <path id="Path_2504" d="M399.589 291h-4.036a.554.554 0 0 0-.554.554v4.115a.554.554 0 0 0 .554.554h4.036a.554.554 0 0 0 .554-.554v-4.115a.554.554 0 0 0-.554-.554zm-.554 4.115h-2.928v-3.007h2.928z" class="cls-1" data-name="Path 2504" transform="translate(-346.247 -241.268)"/>
    </g>
</svg>
